<svg width="501" height="134" viewBox="0 0 501 134" fill="none" xmlns="http://www.w3.org/2000/svg">
<path d="M34.32 28C34.9067 27.3067 35.2 26.48 35.2 25.52C35.2 24.56 34.9067 23.7067 34.32 22.96C33.7867 22.16 32.9867 21.76 31.92 21.76H25.2V29.04H31.92C32.9867 29.04 33.7867 28.6933 34.32 28ZM25.2 42.4V50.24H32.64C33.8667 50.24 34.7733 49.84 35.36 49.04C36 48.1867 36.32 47.2533 36.32 46.24V46.16C36.32 45.1467 35.9733 44.2667 35.28 43.52C34.64 42.7733 33.76 42.4 32.64 42.4H25.2ZM34.72 64H7.36C6.77333 64 6.26667 63.7867 5.84 63.36C5.41333 62.9333 5.2 62.4267 5.2 61.84V10.16C5.2 9.57333 5.41333 9.06667 5.84 8.64C6.26667 8.21333 6.77333 8 7.36 8H33.92C41.4933 8 47.0667 9.38666 50.64 12.16C54.2667 14.88 56.08 19.0133 56.08 24.56V24.8C56.08 27.0933 55.4133 29.1467 54.08 30.96C52.7467 32.72 51.28 34 49.68 34.8C51.8133 35.6533 53.6 37.1733 55.04 39.36C56.5333 41.4933 57.28 43.84 57.28 46.4C57.28 58.1333 49.76 64 34.72 64ZM71.3488 13.12C76.2554 9.17333 82.7354 7.2 90.7888 7.2C98.8421 7.2 105.295 9.2 110.149 13.2C115.055 17.1467 117.509 22.72 117.509 29.92V42.4C117.509 49.7067 115.082 55.28 110.229 59.12C105.429 62.9067 98.9488 64.8 90.7888 64.8C82.6288 64.8 76.1221 62.9067 71.2688 59.12C66.4688 55.28 64.0688 49.7067 64.0688 42.4V29.92C64.0688 22.6667 66.4954 17.0667 71.3488 13.12ZM86.4688 47.6C87.5354 48.6667 88.9754 49.2 90.7888 49.2C92.6021 49.2 94.0421 48.6667 95.1088 47.6C96.1754 46.5333 96.7088 44.9067 96.7088 42.72V29.28C96.7088 27.1467 96.1754 25.5467 95.1088 24.48C94.0421 23.36 92.6021 22.8 90.7888 22.8C88.9754 22.8 87.5354 23.36 86.4688 24.48C85.4021 25.5467 84.8688 27.1467 84.8688 29.28V42.72C84.8688 44.9067 85.4021 46.5333 86.4688 47.6ZM143.814 8H161.174C163.094 8 164.294 8.88 164.774 10.64L182.614 61.68C182.667 61.84 182.694 62.1067 182.694 62.48C182.694 62.8 182.507 63.1467 182.134 63.52C181.814 63.84 181.414 64 180.934 64H166.134C164.534 64 163.494 63.3333 163.014 62L161.094 56.72H143.894L141.974 62C141.494 63.3333 140.454 64 138.854 64H124.054C123.574 64 123.147 63.84 122.774 63.52C122.454 63.1467 122.294 62.8 122.294 62.48C122.294 62.1067 122.32 61.84 122.374 61.68L140.214 10.64C140.694 8.88 141.894 8 143.814 8ZM147.974 41.12H157.014L152.454 26.24L147.974 41.12ZM240.626 61.36C240.786 61.68 240.866 62.0267 240.866 62.4C240.866 62.7733 240.68 63.1467 240.306 63.52C239.986 63.84 239.586 64 239.106 64H222.706C221.053 64 219.906 63.28 219.266 61.84L212.386 46.56H209.106V61.84C209.106 62.4267 208.893 62.9333 208.466 63.36C208.04 63.7867 207.533 64 206.946 64H191.266C190.68 64 190.173 63.7867 189.746 63.36C189.32 62.9333 189.106 62.4267 189.106 61.84V10.16C189.106 9.57333 189.32 9.06667 189.746 8.64C190.173 8.21333 190.68 8 191.266 8H214.946C222.626 8 228.626 9.73333 232.946 13.2C237.266 16.6133 239.426 21.5467 239.426 28C239.426 34.4 236.546 39.44 230.786 43.12L240.626 61.36ZM209.106 22.88V31.36H214.946C216.12 31.36 217.026 30.9867 217.666 30.24C218.306 29.44 218.626 28.4533 218.626 27.28C218.626 26.1067 218.306 25.0933 217.666 24.24C217.08 23.3333 216.173 22.88 214.946 22.88H209.106ZM250.641 8H273.681C281.468 8 287.868 9.94666 292.881 13.84C297.948 17.68 300.481 23.0667 300.481 30V41.92C300.481 49.1733 298.028 54.6667 293.121 58.4C288.215 62.1333 281.761 64 273.761 64H250.641C250.055 64 249.548 63.7867 249.121 63.36C248.695 62.9333 248.481 62.4267 248.481 61.84V10.16C248.481 9.57333 248.695 9.06667 249.121 8.64C249.548 8.21333 250.055 8 250.641 8ZM268.481 23.6V48.4H273.681C275.495 48.4 276.935 47.8667 278.001 46.8C279.121 45.68 279.681 44.0533 279.681 41.92V30C279.681 25.7333 277.681 23.6 273.681 23.6H268.481Z" fill="black"/>
<path d="M351.32 77H367C367.587 77 368.093 77.2133 368.52 77.64C368.947 78.0667 369.16 78.5733 369.16 79.16V130.84C369.16 131.427 368.947 131.933 368.52 132.36C368.093 132.787 367.587 133 367 133H351.32C350.733 133 350.227 132.787 349.8 132.36C349.373 131.933 349.16 131.427 349.16 130.84V113.56H336.2V130.84C336.2 131.427 335.987 131.933 335.56 132.36C335.133 132.787 334.627 133 334.04 133H318.36C317.773 133 317.267 132.813 316.84 132.44C316.413 132.013 316.2 131.48 316.2 130.84V79.16C316.2 78.5733 316.413 78.0667 316.84 77.64C317.267 77.2133 317.773 77 318.36 77H334.04C334.627 77 335.133 77.2133 335.56 77.64C335.987 78.0667 336.2 78.5733 336.2 79.16V95.96H349.16V79.16C349.16 78.5733 349.373 78.0667 349.8 77.64C350.227 77.2133 350.733 77 351.32 77ZM412.759 77H428.439C429.026 77 429.533 77.2133 429.959 77.64C430.386 78.0667 430.599 78.5733 430.599 79.16V111.32C430.599 118.787 428.279 124.413 423.639 128.2C418.999 131.933 412.679 133.8 404.679 133.8C396.733 133.8 390.413 131.933 385.719 128.2C381.079 124.467 378.759 118.84 378.759 111.32V79.16C378.759 78.5733 378.973 78.0667 379.399 77.64C379.826 77.2133 380.333 77 380.919 77H396.599C397.186 77 397.693 77.2133 398.119 77.64C398.546 78.0667 398.759 78.5733 398.759 79.16V111.56C398.759 115.667 400.733 117.72 404.679 117.72C408.626 117.72 410.599 115.667 410.599 111.56V79.16C410.599 78.5733 410.813 78.0667 411.239 77.64C411.666 77.2133 412.173 77 412.759 77ZM469.304 97C469.891 96.3067 470.184 95.48 470.184 94.52C470.184 93.56 469.891 92.7067 469.304 91.96C468.771 91.16 467.971 90.76 466.904 90.76H460.184V98.04H466.904C467.971 98.04 468.771 97.6933 469.304 97ZM460.184 111.4V119.24H467.624C468.851 119.24 469.758 118.84 470.344 118.04C470.984 117.187 471.304 116.253 471.304 115.24V115.16C471.304 114.147 470.958 113.267 470.264 112.52C469.624 111.773 468.744 111.4 467.624 111.4H460.184ZM469.704 133H442.344C441.758 133 441.251 132.787 440.824 132.36C440.398 131.933 440.184 131.427 440.184 130.84V79.16C440.184 78.5733 440.398 78.0667 440.824 77.64C441.251 77.2133 441.758 77 442.344 77H468.904C476.478 77 482.051 78.3867 485.624 81.16C489.251 83.88 491.064 88.0133 491.064 93.56V93.8C491.064 96.0933 490.398 98.1467 489.064 99.96C487.731 101.72 486.264 103 484.664 103.8C486.798 104.653 488.584 106.173 490.024 108.36C491.518 110.493 492.264 112.84 492.264 115.4C492.264 127.133 484.744 133 469.704 133Z" fill="black"/>
<line x1="0.945653" y1="103.105" x2="305.944" y2="102" stroke="#EB742A" stroke-width="30"/>
<line x1="310.946" y1="37.6886" x2="500.944" y2="37.0002" stroke="#EB742A" stroke-width="30"/>
</svg>
